# xmcd
#
# Track frame offsets: 
#        150
#        13958
#        28063
#        41727
#        54649
#        67733
#        80462
#        94234
#        109177
#        123793
#        137897
#        152519
#        165360
#        178644
#        192937
#        206458
#
# Disc length: 2943 seconds
#
# Revision: 0
# Processed by: cddbd v1.4PL0 Copyright (c) Steve Scherf et al.
# Submitted via: ExactAudioCopy v0.95a4
#
DISCID=d10b7d10
DTITLE=BWillie McTell - Experience Blues
DYEAR=2002
DGENRE=Blues
TTITLE0=Willie McTell
TTITLE1=Searchin' The Desert For The Blues
TTITLE2=It's Your Time To Worry
TTITLE3=Lord, Send Me An Angel
TTITLE4=Love-Makin' Mama
TTITLE5=You Was Born To Die
TTITLE6=Rollin' Mama Blues
TTITLE7=Low Rider's Blues
TTITLE8=Lonesome Day Blues
TTITLE9=Mama, Let Me Scoop For You
TTITLE10=Savannah Mama
TTITLE11=It's Good Little Thing
TTITLE12=Death Room Blues
TTITLE13=Experience Blues
TTITLE14=My Baby's Gone
TTITLE15=Broke Down Engine
EXTD=
EXTT0=
EXTT1=
EXTT2=
EXTT3=
EXTT4=
EXTT5=
EXTT6=
EXTT7=
EXTT8=
EXTT9=
EXTT10=
EXTT11=
EXTT12=
EXTT13=
EXTT14=
EXTT15=
PLAYORDER=
